<svg width="110" height="111" viewBox="0 0 110 111" xmlns="http://www.w3.org/2000/svg" xmlns:xlink="http://www.w3.org/1999/xlink"><title>AE06900A-3463-483F-9DF5-8A29BCB75DB6</title><defs><filter x="-50%" y="-50%" width="200%" height="200%" filterUnits="objectBoundingBox" id="a"><feOffset dy="2" in="SourceAlpha" result="shadowOffsetOuter1"/><feGaussianBlur stdDeviation="2.5" in="shadowOffsetOuter1" result="shadowBlurOuter1"/><feColorMatrix values="0 0 0 0 0 0 0 0 0 0 0 0 0 0 0 0 0 0 0.2 0" in="shadowBlurOuter1" result="shadowMatrixOuter1"/><feMerge><feMergeNode in="shadowMatrixOuter1"/><feMergeNode in="SourceGraphic"/></feMerge></filter><linearGradient x1="98.874%" y1="50%" x2="0%" y2="50%" id="d"><stop stop-color="#4561EC" offset="0%"/><stop stop-color="#3598FE" offset="100%"/></linearGradient><path d="M69.776 34.959c0 13.278-18.118 30.49-40.665 34.533C13.73 72.25.001 61.279.001 45.986V23.931C0 8.64 13.73-2.332 29.11.426 51.658 4.468 69.776 21.68 69.776 34.959" id="c"/><filter x="-50%" y="-50%" width="200%" height="200%" filterUnits="objectBoundingBox" id="b"><feOffset in="SourceAlpha" result="shadowOffsetOuter1"/><feGaussianBlur stdDeviation="10" in="shadowOffsetOuter1" result="shadowBlurOuter1"/><feComposite in="shadowBlurOuter1" in2="SourceAlpha" operator="out" result="shadowBlurOuter1"/><feColorMatrix values="0 0 0 0 0 0 0 0 0 0 0 0 0 0 0 0 0 0 0.2 0" in="shadowBlurOuter1"/></filter></defs><g filter="url(#a)" transform="translate(-91 -166)" fill="none" fill-rule="evenodd"><g transform="translate(112 186)"><use fill="#000" filter="url(#b)" xlink:href="#c"/><use fill-opacity=".95" fill="url(#d)" xlink:href="#c"/></g><path d="M155.114 216.463l1.658.954c2.505 1.439 2.505 5.054 0 6.493l-17.488 10.048c-2.496 1.435-5.61-.367-5.61-3.247v-20.095c0-2.88 3.114-4.682 5.61-3.247l9.932 5.706" stroke="#FFF" stroke-width="2.385" stroke-linecap="round" stroke-linejoin="round"/></g></svg>