<svg id="Layer_1" data-name="Layer 1" xmlns="http://www.w3.org/2000/svg" xmlns:xlink="http://www.w3.org/1999/xlink" viewBox="0 0 822.05 255.12"><defs><style>.cls-1{fill:#fff;}.cls-2{fill:#19648e;}.cls-3{fill:url(#linear-gradient);}.cls-4{fill:#7fe3ff;}.cls-5{fill:url(#linear-gradient-2);}.cls-6{fill:url(#linear-gradient-3);}.cls-7{fill:url(#linear-gradient-4);}.cls-8{fill:#c4dd31;}</style><linearGradient id="linear-gradient" x1="506.52" y1="43.41" x2="506.52" y2="206.93" gradientUnits="userSpaceOnUse"><stop offset="0.3" stop-color="#7fe3ff"/><stop offset="1" stop-color="#15a4ff"/></linearGradient><linearGradient id="linear-gradient-2" x1="214.47" y1="44.31" x2="214.47" y2="114.72" gradientUnits="userSpaceOnUse"><stop offset="0.3" stop-color="#9fc93a"/><stop offset="1" stop-color="#3aaa35"/></linearGradient><linearGradient id="linear-gradient-3" x1="166.78" y1="62.21" x2="166.78" y2="119" xlink:href="#linear-gradient-2"/><linearGradient id="linear-gradient-4" x1="103.03" y1="43.66" x2="103.03" y2="117.53" xlink:href="#linear-gradient-2"/></defs><path class="cls-1" d="M759,79.3l0-1a9.66,9.66,0,0,0-9.76-9.77h-3l-.31.31-26.29,1.36a10,10,0,0,0-8.48,5.07,8.87,8.87,0,0,0-6.46-3.1l-30.28-2.15-.55-.28h-1.74A8.92,8.92,0,0,0,663.39,77c-1.22,6.26-2.16,12.14-2.84,17.72-.46-.51-.92-1-1.4-1.5-8.3-15.06-22.66-23.68-39.5-23.68a59.94,59.94,0,0,0-8.7.6,9.74,9.74,0,0,0-2.27-3.51,9.64,9.64,0,0,0-7.54-2.83L572,65l-.42,0a10.57,10.57,0,0,0-9.5,10.38l.12,19.08c-.39-.44-.79-.86-1.19-1.28-8.31-15.06-22.67-23.68-39.51-23.68a59.94,59.94,0,0,0-8.7.6A9.81,9.81,0,0,0,503,63.75L473.85,65l-.43,0a10.65,10.65,0,0,0-8.65,6.34A10,10,0,0,0,458.32,69l-28.43.45-.7.05a10,10,0,0,0-6.47,3.38,41.51,41.51,0,0,0-13.59-2.37,44,44,0,0,0-31.9,13.71c-.62.64-1.16,1.33-1.74,2l1.33-28.75a7.52,7.52,0,0,0-1.88-5.61A7.76,7.76,0,0,0,370,49.33l0-.41a9.47,9.47,0,0,0-2.36-7,9.59,9.59,0,0,0-7.13-3.27h0l-32.77-.46A9.68,9.68,0,0,0,318,47.7v1.13a7.61,7.61,0,0,0-4.57-2.08l0-.15a9.29,9.29,0,0,0-2.28-7.3,9.57,9.57,0,0,0-7.23-3.24l-36.06.46A9.82,9.82,0,0,0,258.11,46L254,164.41a10,10,0,0,0,8.85,10l1.94.2a8,8,0,0,0,7,6.58l29.92,3.18a8.25,8.25,0,0,0,.86,0,7.8,7.8,0,0,0,5.2-2,7.52,7.52,0,0,0,2.52-5.22l3.41-36.37,3-.19-.38,22.63a9.16,9.16,0,0,0,2.66,7.11,9.37,9.37,0,0,0,7.75,2.66l.23,0a7.21,7.21,0,0,0,2.1,4.71,7.52,7.52,0,0,0,6.17,2.1l28.83-3.15a8.16,8.16,0,0,0,7.58-7.38l.81-17.53A40.74,40.74,0,0,0,388,165.64c7.62,7.55,17.78,11.54,29.44,11.54a33.53,33.53,0,0,0,14-2.91A7.79,7.79,0,0,0,439,180.2L464.23,179l.32,0,.14,23.27A10.11,10.11,0,0,0,475,212.45h0l.44,0a8.15,8.15,0,0,0,8.2,6.79h0l25.83-.9a8.36,8.36,0,0,0,8.29-8.36l.48-31.43a52.23,52.23,0,0,0,14.22,2c12.2,0,22.69-4.76,30.15-13.15l.21,34.87a10.22,10.22,0,0,0,2.9,7.2,10.12,10.12,0,0,0,7.41,3h0l.45,0a8.14,8.14,0,0,0,8.19,6.79h0l25.82-.9a8.36,8.36,0,0,0,8.29-8.36l.49-31.43a52.23,52.23,0,0,0,14.22,2c17.79,0,31.65-10,38.17-26.44a38.24,38.24,0,0,0,15.35,13.56c6.93,6.92,16,10.66,27.1,11.16l-.81,24.65a10,10,0,0,0,9.7,10.07h0l1.06,0a8,8,0,0,0,7.71,6.74h0l24.35.76h.54a7.67,7.67,0,0,0,5.12-2,7.76,7.76,0,0,0,2.64-5.69L765.8,87.06A7.84,7.84,0,0,0,759,79.3Z"/><path class="cls-2" d="M366.28,168.74a2.76,2.76,0,0,1-2.58,2.57l-29,3.18a1.9,1.9,0,0,1-2.26-2.12l.6-35.7a2.26,2.26,0,0,0-2.42-2.26l-19.66,1.21a2.75,2.75,0,0,0-2.42,2.57l-3.63,38.72A2.28,2.28,0,0,1,302.3,179l-29.95-3.17a2.64,2.64,0,0,1-2.27-2.72L274.17,55a2.6,2.6,0,0,1,2.41-2.42l36.15-.45a2.09,2.09,0,0,1,2.12,2.26l-3.78,48a2,2,0,0,0,2.12,2.27L331,103.7a2.6,2.6,0,0,0,2.42-2.42l.6-44.77a2.36,2.36,0,0,1,2.42-2.27l32.67.46a2.26,2.26,0,0,1,2.27,2.42Zm100.26,2.12a2.91,2.91,0,0,1-2.57,2.72l-24.8,1.21H439a2.46,2.46,0,0,1-2.41-2.27l-.16-8.17c-4.68,4.54-10.74,7.41-19.05,7.41-22.69,0-37.67-16.78-37.67-43.4,0-25.11,18-41.75,38.12-41.75a36.2,36.2,0,0,1,18.6,5.45l-.15-3.94a2.62,2.62,0,0,1,2.42-2.57l28.44-.45a2.39,2.39,0,0,1,2.42,2.42Zm-30.1-46.59a11.25,11.25,0,0,0-11-8.77c-7.26,0-12.25,5.9-12.25,14.37,0,8.32,5.6,13.46,12.1,13.46,4.69,0,9.83-4.24,11.19-12Zm96,50.82A44.55,44.55,0,0,1,513,170.71l-.6,39.17a3,3,0,0,1-2.87,3l-26,.9a2.75,2.75,0,0,1-2.72-2.87L480,84a3.25,3.25,0,0,1,2.87-3l29.2-1.21a2.47,2.47,0,0,1,2.72,2.73v5.59a41.14,41.14,0,0,1,15.43-2.57c21.17,0,39.17,16.94,39.17,44.92C569.38,161.18,551.84,175.09,532.48,175.09Zm-7.87-58.38c-6.81,0-10.74,7.56-10.74,14.52,0,10.74,5,15.88,10.89,15.88,6.81,0,11.19-6.05,11.19-16.94C536,121.7,531.72,116.71,524.61,116.71Zm106,58.38a44.48,44.48,0,0,1-19.51-4.38l-.61,39.17a3,3,0,0,1-2.88,3l-26,.9a2.75,2.75,0,0,1-2.72-2.87L578.14,84A3.25,3.25,0,0,1,581,81l29.19-1.21a2.47,2.47,0,0,1,2.72,2.73v5.59a41.1,41.1,0,0,1,15.43-2.57c21.17,0,39.17,16.94,39.17,44.92C667.53,161.18,650,175.09,630.63,175.09Zm-7.87-58.38c-6.8,0-10.74,7.56-10.74,14.52,0,10.74,5,15.88,10.89,15.88,6.81,0,11.19-6.05,11.19-16.94C634.1,121.7,629.87,116.71,622.76,116.71Zm133.39,96.5a2.43,2.43,0,0,1-2.57,2.42h-.15l-24.35-.76a2.68,2.68,0,0,1-2.58-2.72l1.37-41.6a32,32,0,0,1-14.07,2.88c-29.65,0-38.57-24.2-38.57-49.16,0-13.46,2.12-27.07,4.08-37.21a1.61,1.61,0,0,1,1.52-1.21l.3.16L713,88.27a1.4,1.4,0,0,1,1.52,1.37v.3c-1.06,5.29-5.75,25.11-5.75,40.53,0,10.59,2.72,19.06,7.56,19.06,7.26,0,9.38-6.2,9.38-14.67L725.9,89a2.68,2.68,0,0,1,2.57-2.72l29.34-1.51.16-.16a2.38,2.38,0,0,1,2.41,2.42Z"/><path class="cls-3" d="M357.57,160A2.76,2.76,0,0,1,355,162.6l-29,3.18a1.9,1.9,0,0,1-2.26-2.12l.6-35.7a2.26,2.26,0,0,0-2.42-2.26l-19.66,1.21a2.75,2.75,0,0,0-2.42,2.57l-3.63,38.72a2.28,2.28,0,0,1-2.57,2.11l-29.95-3.17a2.64,2.64,0,0,1-2.27-2.72l4.09-118.13a2.6,2.6,0,0,1,2.41-2.42L304,43.41a2.11,2.11,0,0,1,2.12,2.27l-3.78,47.95a2,2,0,0,0,2.12,2.27L322.32,95a2.6,2.6,0,0,0,2.43-2.42l.6-44.77a2.36,2.36,0,0,1,2.42-2.27l32.67.46a2.26,2.26,0,0,1,2.27,2.42Zm100.26,2.12a2.91,2.91,0,0,1-2.57,2.72l-24.8,1.21h-.16a2.46,2.46,0,0,1-2.41-2.27l-.16-8.17c-4.68,4.54-10.74,7.41-19.05,7.41-22.69,0-37.67-16.78-37.67-43.4,0-25.11,18-41.75,38.12-41.75a36.28,36.28,0,0,1,18.6,5.44l-.15-3.93A2.62,2.62,0,0,1,430,76.84l28.44-.45a2.39,2.39,0,0,1,2.42,2.42Zm-30.1-46.59a11.25,11.25,0,0,0-11-8.77c-7.26,0-12.25,5.9-12.25,14.37,0,8.32,5.6,13.46,12.1,13.46,4.69,0,9.83-4.24,11.19-12Zm96,50.82A44.55,44.55,0,0,1,504.25,162l-.6,39.17a3,3,0,0,1-2.87,3l-26,.91a2.75,2.75,0,0,1-2.72-2.87l-.76-126.9a3.24,3.24,0,0,1,2.87-3l29.2-1.21a2.47,2.47,0,0,1,2.72,2.73v5.59a41.14,41.14,0,0,1,15.43-2.57c21.17,0,39.17,16.94,39.17,44.92C560.67,152.47,543.13,166.38,523.77,166.38ZM515.9,108c-6.81,0-10.74,7.56-10.74,14.52,0,10.74,5,15.88,10.89,15.88,6.81,0,11.19-6.05,11.19-16.94C527.24,113,523,108,515.9,108Zm106,58.38A44.55,44.55,0,0,1,602.4,162l-.6,39.17a3,3,0,0,1-2.88,3l-26,.91a2.75,2.75,0,0,1-2.72-2.87l-.76-126.9a3.24,3.24,0,0,1,2.88-3l29.19-1.21a2.47,2.47,0,0,1,2.72,2.73v5.59a41.1,41.1,0,0,1,15.43-2.57c21.17,0,39.17,16.94,39.17,44.92C658.82,152.47,641.28,166.38,621.92,166.38ZM614.05,108c-6.81,0-10.74,7.56-10.74,14.52,0,10.74,5,15.88,10.89,15.88,6.81,0,11.19-6.05,11.19-16.94C625.39,113,621.16,108,614.05,108Zm133.39,96.5a2.43,2.43,0,0,1-2.57,2.42h-.15l-24.35-.76a2.68,2.68,0,0,1-2.58-2.72l1.37-41.6a32,32,0,0,1-14.07,2.88c-29.65,0-38.57-24.2-38.57-49.16,0-13.46,2.12-27.07,4.08-37.21a1.61,1.61,0,0,1,1.52-1.21l.3.15,31.91,2.27a1.4,1.4,0,0,1,1.52,1.36v.31c-1.06,5.29-5.75,25.11-5.75,40.53,0,10.59,2.72,19.06,7.56,19.06,7.26,0,9.38-6.2,9.38-14.67l.15-45.83a2.68,2.68,0,0,1,2.57-2.72l29.34-1.52.16-.15a2.38,2.38,0,0,1,2.41,2.42Z"/><path class="cls-4" d="M745.09,208.86h-.37l-24.41-.75h0a4.58,4.58,0,0,1-4.45-4.66l1.26-38.66a35.75,35.75,0,0,1-12,1.87c-35.24,0-40.51-32-40.51-51.09,0-11,1.35-23.29,4.12-37.57a3.53,3.53,0,0,1,3.42-2.78h.46l.36.18,31.47,2.24a3.29,3.29,0,0,1,3.37,3.3l0,.68-.56,2.66c-1.55,7.25-5.15,24.21-5.15,37.49,0,10.72,2.86,17.13,5.62,17.13,3.47,0,7.44-1.45,7.44-12.74l.15-45.84a4.66,4.66,0,0,1,4.45-4.65l28.56-1.47.2-.19h.8a4.3,4.3,0,0,1,4.35,4.35l-4.23,126.18a4.42,4.42,0,0,1-1.49,3.25A4.2,4.2,0,0,1,745.09,208.86Zm-.22-3.88h.21a.28.28,0,0,0,.23-.1.57.57,0,0,0,.2-.39v-.07l4.23-126.14a.39.39,0,0,0-.13-.29l-29.85,1.53a.78.78,0,0,0-.63.79L719,126.15c0,11-3.8,16.61-11.31,16.61-5.86,0-9.5-8-9.5-21,0-13.69,3.67-30.93,5.24-38.29.16-.77.31-1.44.42-2l-31.41-2.24c-2.66,13.82-4,25.71-4,36.33,0,17.64,4.76,47.22,36.64,47.22a29.89,29.89,0,0,0,13.23-2.68l2.88-1.39-1.47,44.79a.75.75,0,0,0,.64.73l24.41.75ZM573,207a4.7,4.7,0,0,1-4.72-4.81L567.5,75.34a5.15,5.15,0,0,1,4.61-5h.12l29.14-1.21a4.39,4.39,0,0,1,4.78,4.73v2.79a46.7,46.7,0,0,1,13.5-1.77c23.82,0,41.1,19.7,41.1,46.85,0,34.36-20.92,46.56-38.83,46.56A47.51,47.51,0,0,1,604.29,165l-.56,36.23a4.94,4.94,0,0,1-4.81,4.93L573,207Zm-.51-132.81a1.31,1.31,0,0,0-1.09,1.1l.75,126.89c0,.57.32.95.79.95l26-.91a1.08,1.08,0,0,0,1-1.09l.66-42.28,2.75,1.37a42.43,42.43,0,0,0,18.65,4.19c16.13,0,35-11.18,35-42.69,0-28.22-18.73-43-37.23-43A39.31,39.31,0,0,0,605,81.2l-2.67,1.09V73.64a.57.57,0,0,0-.14-.47.59.59,0,0,0-.46-.15h-.11ZM474.83,207a4.7,4.7,0,0,1-4.72-4.81l-.76-126.89a5.15,5.15,0,0,1,4.61-5h.11l29.15-1.21A4.39,4.39,0,0,1,508,73.89v2.79a46.7,46.7,0,0,1,13.5-1.77c23.82,0,41.11,19.7,41.11,46.85,0,34.36-20.93,46.56-38.84,46.56A47.51,47.51,0,0,1,506.14,165l-.55,36.23a5,5,0,0,1-4.81,4.93l-25.95.91Zm-.52-132.81a1.34,1.34,0,0,0-1.09,1.1L474,202.22c0,.57.31.95.78.95l25.95-.91a1.1,1.1,0,0,0,1-1.09l.65-42.28,2.75,1.37a42.43,42.43,0,0,0,18.65,4.19c16.13,0,35-11.18,35-42.69,0-28.22-18.74-43-37.24-43a39.28,39.28,0,0,0-14.7,2.42l-2.67,1.09V73.64a.54.54,0,0,0-.15-.47.55.55,0,0,0-.45-.15h-.11Zm-180.46,98a3.85,3.85,0,0,1-.48,0l-29.93-3.18a4.59,4.59,0,0,1-4-4.64l4.09-118.2a4.51,4.51,0,0,1,4.35-4.29L304,41.48a4.1,4.1,0,0,1,3.1,1.4,3.86,3.86,0,0,1,1,3l-3.77,47.85c0,.16,0,.21,0,.22l18-.94a.81.81,0,0,0,.49-.5l.6-44.78a4.28,4.28,0,0,1,4.36-4.18l32.7.45a4.26,4.26,0,0,1,3.15,1.44,4.05,4.05,0,0,1,1,3.07l-5.15,111.68a4.67,4.67,0,0,1-4.37,4.29l-29,3.17a4,4,0,0,1-3.33-1.1,3.81,3.81,0,0,1-1.08-3l.61-35.62c0-.06,0-.28-.44-.3l-19.51,1.2c-.31.06-.69.36-.69.65v.18l-3.62,38.64a4,4,0,0,1-1.36,2.86A4.35,4.35,0,0,1,293.85,172.26ZM304,45.35l-36.12.45a.79.79,0,0,0-.51.5l-4.08,118.18a.7.7,0,0,0,.54.73l29.94,3.18a.43.43,0,0,0,.43-.21V168l3.62-38.65A4.7,4.7,0,0,1,302,125h.12l19.78-1.21a4.19,4.19,0,0,1,4.36,4.2l-.62,35.9h.13L355,160.67c.28,0,.58-.39.65-.81l5.15-111.69a.39.39,0,0,0-.35-.25l-32.7-.45a.44.44,0,0,0-.45.33l-.61,44.8a4.53,4.53,0,0,1-4.3,4.33l-17.74.9a3.77,3.77,0,0,1-3.05-1.08,4,4,0,0,1-1.15-3.33l3.77-47.89A.19.19,0,0,0,304,45.35ZM430.3,168a4.4,4.4,0,0,1-4.34-4v-.2l-.08-4.11A28.29,28.29,0,0,1,408.68,165c-24.06,0-39.6-17.8-39.6-45.34,0-12.31,4.28-23.55,12.05-31.63a38.57,38.57,0,0,1,28-12,37.47,37.47,0,0,1,16.54,4l0-.52a4.59,4.59,0,0,1,4.14-4.57H430l28.44-.46a4.32,4.32,0,0,1,4.38,4.36l-3,83.38a4.86,4.86,0,0,1-4.3,4.6h-.12Zm-.48-4.37c0,.17.14.5.48.5h.15l24.64-1.2a1,1,0,0,0,.81-.79v-.07l3-83.34a.45.45,0,0,0-.48-.42l-28.29.45a.7.7,0,0,0-.63.64l.29,7.44L426.74,85a34,34,0,0,0-17.61-5.17C388.5,79.84,373,97,373,119.65c0,25.19,14,41.47,35.73,41.47,7.14,0,12.93-2.25,17.71-6.87l3.2-3.1Zm184.38-23.3c-5.91,0-12.82-4.67-12.82-17.82,0-8.09,4.74-16.46,12.67-16.46,8.19,0,13.28,5.9,13.28,15.4C627.33,133.1,622.3,140.34,614.2,140.34Zm-.15-30.41c-5.44,0-8.8,6.54-8.8,12.59,0,8.6,3.43,14,9,14,5.8,0,9.26-5.61,9.26-15C623.46,117.16,622.24,109.93,614.05,109.93Zm-98,30.41c-5.91,0-12.82-4.67-12.82-17.82,0-8.09,4.74-16.46,12.67-16.46,8.19,0,13.28,5.9,13.28,15.4C529.18,133.1,524.15,140.34,516.05,140.34Zm-.15-30.41c-5.44,0-8.8,6.54-8.8,12.59,0,8.6,3.43,14,8.95,14,5.8,0,9.26-5.61,9.26-15C525.31,117.16,524.09,109.93,515.9,109.93Zm-99.36,26.62c-8.13,0-14-6.47-14-15.39,0-9.6,5.83-16.31,14.18-16.31a13.21,13.21,0,0,1,12.92,10.24l.06.23,0,7.69C428,132.32,421.7,136.55,416.54,136.55Zm.15-27.83c-6.17,0-10.31,5-10.31,12.44s5.11,11.52,10.16,11.52c3.68,0,8-3.49,9.26-10.18v-6.69A9.28,9.28,0,0,0,416.69,108.72Z"/><path class="cls-5" d="M197.49,81.89h5.57a1.48,1.48,0,0,1,1.3,1.3v.09l-.72,31.44a137.12,137.12,0,0,0,19.47-8.93l1.29-22.33a1.34,1.34,0,0,1,1.39-1.29l6.68.09a1.26,1.26,0,0,0,1.21-1.3l-.1-15a1.26,1.26,0,0,0-1.29-1.3l-5.76-.1a1.24,1.24,0,0,1-1.2-1.29v-.1l.92-17.35a1.25,1.25,0,0,0-1.2-1.3l-18.74-.18A1.27,1.27,0,0,0,205,45.6l-.37,17.26a1.26,1.26,0,0,1-1.3,1.3l-6.86-.09a1.23,1.23,0,0,0-1.21,1.21v.09l.83,15.22A1.51,1.51,0,0,0,197.49,81.89Z"/><path class="cls-1" d="M206.31,44.31l18.74.18a1.25,1.25,0,0,1,1.2,1.3l-.92,17.35v.1a1.24,1.24,0,0,0,1.2,1.29l5.76.1a1.26,1.26,0,0,1,1.29,1.3l.1,15a1.26,1.26,0,0,1-1.21,1.3l-6.68-.09a1.34,1.34,0,0,0-1.39,1.29l-1.29,22.33a137.12,137.12,0,0,1-19.47,8.93l.72-31.44v-.09a1.48,1.48,0,0,0-1.3-1.3h-5.57a1.51,1.51,0,0,1-1.4-1.3l-.83-15.22v-.09a1.23,1.23,0,0,1,1.21-1.21l6.86.09a1.26,1.26,0,0,0,1.3-1.3L205,45.6a1.27,1.27,0,0,1,1.31-1.29m0-4h0A5.24,5.24,0,0,0,201,45.55l-.31,14.58-4.17-.06h-.05a5.22,5.22,0,0,0-5.21,5.21v.31l.83,15.22V81l0,.18a5.48,5.48,0,0,0,5.35,4.73h2.81l-.65,28.74-.14,5.88,5.52-2a142.81,142.81,0,0,0,20-9.19l1.92-1.07.13-2.19,1.14-19.82,4.16.06h.06a5.26,5.26,0,0,0,5.21-5.3l-.1-15.06a5.23,5.23,0,0,0-5.25-5.27l-2.86-.05L230.25,46v-.21a5.26,5.26,0,0,0-5.2-5.3l-18.71-.18Z"/><path class="cls-6" d="M169.1,119c13.45,0,22.08-10.94,23.57-19.39v-.37c0-.74-.46-1.21-1.39-1.21-.19,0-4.74.28-14.48.47-1.21,0-1.85.46-2,1.3-.56,2-3.53,3.71-6.77,3.71-3.62,0-7.52-2-8.63-8,24.86-.56,26.44-.74,26.44-.84,1.49,0,3-.65,3-3.52,0-15.13-6.12-29-23.85-29-14.19,0-24,12.9-24,30.07C140.89,109.63,153,119,169.1,119Zm-3.71-39.43c2.87,0,4.17,2.41,4.17,5.1,0,.37-.09.46-.37.46s-5.75.28-9.65.47C160.28,81.33,162.51,79.57,165.39,79.57Z"/><path class="cls-1" d="M164.92,62.21c17.73,0,23.85,13.83,23.85,29,0,2.87-1.48,3.52-3,3.52,0,.1-1.58.28-26.44.84,1.11,5.94,5,8,8.63,8,3.24,0,6.21-1.67,6.77-3.71.19-.84.83-1.3,2-1.3,9.74-.19,14.29-.47,14.48-.47.93,0,1.39.47,1.39,1.21v.37C191.18,108.06,182.55,119,169.1,119c-16.15,0-28.21-9.37-28.21-26.72,0-17.17,9.84-30.07,24-30.07M159.54,85.6c3.9-.19,9.28-.47,9.65-.47s.37-.09.37-.46c0-2.69-1.3-5.1-4.17-5.1s-5.11,1.76-5.85,6m5.38-27.39c-16.24,0-28,14.33-28,34.07,0,9.45,3.24,17.35,9.38,22.85C152,120.28,159.91,123,169.1,123c16.22,0,25.85-13.27,27.51-22.7l.06-.34v-.72a5,5,0,0,0-4.34-5.12,9.42,9.42,0,0,0,.44-3c0-20.64-10.41-33-27.85-33Z"/><path class="cls-7" d="M106.14,117.53c15.64-1.85,29.74-8,29.74-22.28,0-10.58-13.92-14.94-16.61-15.5V79c1.58-.65,14.29-3.8,14.29-17.72,0-10-9.55-17.63-33.5-17.63-13.17,0-24.49.55-25.7.65-1.67.09-1.67.55-2,1.67s-2.22,9.09-2.22,35.72c0,8.67,0,14.82.1,19.3A137.63,137.63,0,0,0,106.14,117.53ZM95.15,72l.93-9.19a1.78,1.78,0,0,1,1.66-1.58l4.74-.09h.18c4.27,0,7.8,2.23,7.8,5.66,0,3.62-3.16,6.13-7.33,6.4l-6.68.38h-.1a1.34,1.34,0,0,1-1.2-1.4Zm-2.7,26.26.75-7.15c.09-.74.83-1.67,1.57-1.67h5.29c8.45,0,10.77,3.07,10.77,5.85,0,3.15-4.55,5.29-10.3,5.29-.84,0-1.77,0-2.69-.09L93.76,100a1.59,1.59,0,0,1-1.31-1.58Z"/><path class="cls-1" d="M100.06,43.66c24,0,33.5,7.6,33.5,17.63,0,13.92-12.71,17.07-14.29,17.72v.74c2.69.56,16.61,4.92,16.61,15.5,0,14.24-14.1,20.43-29.74,22.28A137.63,137.63,0,0,1,70.29,101c-.07-4.48-.1-10.63-.1-19.3,0-26.63,1.94-34.61,2.22-35.72s.28-1.58,2-1.67c1.21-.1,12.53-.65,25.7-.65M96.35,73.54h.1l6.68-.38c4.17-.27,7.33-2.78,7.33-6.4,0-3.43-3.53-5.66-7.8-5.66h-.18l-4.74.09a1.78,1.78,0,0,0-1.66,1.58L95.15,72v.18a1.34,1.34,0,0,0,1.2,1.4m4.18,27c5.75,0,10.3-2.14,10.3-5.29,0-2.78-2.32-5.85-10.77-5.85H94.77c-.74,0-1.48.93-1.57,1.67l-.75,7.15v.18A1.59,1.59,0,0,0,93.76,100l4.08.47c.92.09,1.85.09,2.69.09m-.47-60.88c-12.79,0-24.29.53-26,.65-4,.24-5.08,2.69-5.52,4.51l0,.18c-.7,2.82-2.34,12-2.34,36.7,0,8.27,0,14.6.1,19.36l0,2.12,1.77,1.16a141.13,141.13,0,0,0,36.88,17l.8.24.83-.1c21.46-2.54,33.27-11.87,33.27-26.25,0-8-5.79-13.22-11.42-16.25,7.34-5,9.1-12.1,9.1-17.71,0-6.75-3.37-12.29-9.75-16s-15.68-5.6-27.75-5.6Z"/><path class="cls-8" d="M150.66,149.21c-32.84,0-65-9.34-90.52-26.28a8.71,8.71,0,1,1,9.64-14.52c22.7,15.07,51.43,23.38,80.88,23.38s58.17-8.31,80.88-23.38a8.71,8.71,0,0,1,9.63,14.52C215.64,139.87,183.49,149.21,150.66,149.21Z"/><path class="cls-1" d="M236.35,107a8.71,8.71,0,0,1,4.82,16c-25.53,16.94-57.68,26.28-90.51,26.28s-65-9.34-90.52-26.28a8.71,8.71,0,0,1,9.64-14.52c22.7,15.07,51.43,23.38,80.88,23.38s58.17-8.31,80.88-23.38a8.68,8.68,0,0,1,4.81-1.45m0-4h0a12.67,12.67,0,0,0-7,2.12c-22,14.64-50,22.71-78.66,22.71S94.05,119.72,72,105.08a12.71,12.71,0,0,0-14.06,21.18c26.18,17.38,59.11,27,92.73,27s66.54-9.57,92.72-26.95a12.71,12.71,0,0,0-7-23.3Z"/></svg>